<?xml version="1.0" encoding="iso-8859-1"?>
<!-- Generator: Adobe Illustrator 19.0.0, SVG Export Plug-In . SVG Version: 6.00 Build 0)  -->
<svg version="1.1" id="Layer_1" xmlns="http://www.w3.org/2000/svg" xmlns:xlink="http://www.w3.org/1999/xlink" x="0px" y="0px"
	 viewBox="0 0 512 512" style="enable-background:new 0 0 512 512;" xml:space="preserve">
<g>
	<path style="fill:#333333;" d="M231.181,238.115c0-7.049-4.318-13.005-9.429-13.005c-5.11,0-9.427,5.956-9.427,13.005
		s4.317,13.005,9.427,13.005C226.862,251.119,231.181,245.163,231.181,238.115z"/>
	<polygon style="fill:#333333;" points="234.045,140.161 215.406,140.161 209.231,158.104 234.045,158.104 	"/>
	<polygon style="fill:#333333;" points="277.957,158.104 302.772,158.104 296.598,140.161 277.957,140.161 	"/>
</g>
<rect x="244.936" y="140.159" style="fill:#E6E6E6;" width="22.125" height="17.943"/>
<g>
	<polygon style="fill:#412559;" points="256.001,22.187 219.154,129.268 292.848,129.268 	"/>
	<path style="fill:#412559;" d="M374.489,168.998H137.511c14.124,16.225,58.036,31.009,118.489,31.009
		S360.367,185.223,374.489,168.998z"/>
</g>
<path style="fill:#E6E6E6;" d="M353.499,350.519c-8.614-32.56-7.61-63.377-7.512-65.893v-29.16c0-19.104-5.964-37.241-17.27-52.68
	c-20.901,5.171-45.834,8.116-72.717,8.116c-26.887,0-51.825-2.946-72.728-8.119c-11.3,15.435-17.258,33.573-17.258,52.683v29.16
	c0.099,2.516,1.102,33.333-7.512,65.893c-11.367,42.963-34.416,68.862-66.84,75.267c0.994,5.037,3.664,13.224,10.822,19.306
	c8.994,7.643,22.684,10.185,40.698,7.546c41.53-6.077,53.947,2.547,67.621,25.525c14.156,23.789,44.684,22.939,44.984,22.931
	c0.074-0.003,0.364-0.002,0.439,0.001c0.296,0.004,30.815,0.857,44.973-22.931c13.673-22.979,26.084-31.606,67.621-25.525
	c18.08,2.646,31.804,0.078,40.798-7.631c7.153-6.133,9.781-14.224,10.747-19.215C387.928,419.394,364.87,393.492,353.499,350.519z
	 M201.43,238.115c0-13.177,9.116-23.899,20.321-23.899c11.205,0,20.322,10.721,20.322,23.899s-9.117,23.899-20.322,23.899
	C210.546,262.013,201.43,251.292,201.43,238.115z M298.82,276.565c-7.191,13.602-23.997,22.391-42.818,22.391
	s-35.629-8.789-42.82-22.391c-0.892-1.689-0.837-3.72,0.149-5.356c0.986-1.636,2.756-2.636,4.666-2.636h76.007
	c1.91,0,3.68,1,4.666,2.636C299.656,272.844,299.712,274.877,298.82,276.565z M290.251,262.012
	c-11.205,0-20.321-10.721-20.321-23.899s9.116-23.899,20.321-23.899s20.321,10.721,20.321,23.899S301.457,262.012,290.251,262.012z"
	/>
<g>
	<path style="fill:#333333;" d="M290.251,225.11c-5.11,0-9.427,5.956-9.427,13.005s4.317,13.005,9.427,13.005
		c5.11,0,9.427-5.956,9.427-13.005S295.362,225.11,290.251,225.11z"/>
	<path style="fill:#333333;" d="M256.002,288.061c10.202,0,19.785-3.253,26.424-8.596h-52.85
		C236.216,284.81,245.799,288.061,256.002,288.061z"/>
</g>
<path d="M242.075,238.115c0-13.177-9.117-23.899-20.322-23.899c-11.205,0-20.321,10.721-20.321,23.899s9.116,23.899,20.321,23.899
	C232.958,262.013,242.075,251.292,242.075,238.115z M212.324,238.115c0-7.049,4.317-13.005,9.427-13.005
	c5.11,0,9.429,5.956,9.429,13.005s-4.318,13.005-9.429,13.005C216.641,251.119,212.324,245.163,212.324,238.115z"/>
<path d="M290.251,214.216c-11.205,0-20.321,10.721-20.321,23.899s9.116,23.899,20.321,23.899s20.321-10.721,20.321-23.899
	S301.457,214.216,290.251,214.216z M290.251,251.119c-5.11,0-9.427-5.956-9.427-13.005s4.317-13.005,9.427-13.005
	c5.11,0,9.427,5.956,9.427,13.005S295.362,251.119,290.251,251.119z"/>
<path d="M294.005,268.572h-76.007c-1.91,0-3.68,1-4.666,2.636c-0.985,1.635-1.041,3.668-0.149,5.356
	c7.191,13.602,23.998,22.391,42.82,22.391c18.82,0,35.627-8.789,42.818-22.391c0.892-1.689,0.837-3.72-0.149-5.356
	C297.685,269.573,295.915,268.572,294.005,268.572z M256.002,288.061c-10.203,0-19.786-3.253-26.426-8.596h52.85
	C275.787,284.81,266.204,288.061,256.002,288.061z"/>
<path d="M427.065,415.848c-30.86-3.961-52.047-26.804-62.976-67.895c-8.424-31.677-7.227-62.674-7.214-62.983
	c0.003-0.076,0.005-0.156,0.005-0.232v-29.272c0-20.082-5.895-39.19-17.057-55.758c26.521-8.179,44.74-20.294,49.268-34.503
	c0.527-1.656,0.234-3.465-0.792-4.868c-1.025-1.403-2.659-2.233-4.398-2.233h-69.61L261.152,3.677l-0.022,0.008
	c-0.527-1.529-1.707-2.818-3.356-3.386c-2.849-0.98-5.945,0.534-6.923,3.378l-53.14,154.428h-69.61c-1.739,0-3.373,0.83-4.398,2.233
	c-1.025,1.403-1.319,3.211-0.792,4.867c4.526,14.205,22.74,26.319,49.251,34.498c-11.155,16.565-17.041,35.676-17.041,55.763v29.272
	c0,0.078,0.002,0.156,0.005,0.234c0.052,1.212,4.352,121.307-70.19,130.877c-2.734,0.351-4.775,2.69-4.753,5.446
	c0.007,0.782,0.322,19.306,15.11,31.983c11.491,9.851,28.132,13.263,49.466,10.14c37.307-5.458,45.55,1.613,56.681,20.318
	C217.387,510.532,248.428,512,255.025,512c0.442,0,1.508,0,1.951,0c6.599,0,37.639-1.471,53.584-28.265
	c11.128-18.703,19.369-25.779,56.68-20.317c21.337,3.122,37.978-0.289,49.467-10.14c14.786-12.678,15.102-31.201,15.109-31.983
	C431.839,418.537,429.799,416.199,427.065,415.848z M302.772,158.104h-24.814v-17.943h18.639L302.772,158.104z M256.001,22.187
	l36.847,107.08h-73.694L256.001,22.187z M267.064,140.161v17.943h-22.125v-17.943L267.064,140.161L267.064,140.161z
	 M215.406,140.161h18.638v17.943h-24.813L215.406,140.161z M137.511,168.998h236.978c-14.124,16.225-58.038,31.009-118.489,31.009
	S151.635,185.223,137.511,168.998z M409.619,445.007c-8.994,7.71-22.718,10.278-40.798,7.631
	c-41.537-6.081-53.948,2.546-67.621,25.525c-14.158,23.789-44.676,22.936-44.973,22.931c-0.075-0.003-0.365-0.003-0.439-0.001
	c-0.3,0.008-30.827,0.858-44.984-22.931c-13.675-22.978-26.091-31.602-67.621-25.525c-18.014,2.638-31.705,0.097-40.698-7.546
	c-7.157-6.083-9.827-14.269-10.822-19.306c32.425-6.406,55.473-32.305,66.84-75.267c8.614-32.56,7.61-63.377,7.512-65.893v-29.16
	c0-19.11,5.958-37.248,17.258-52.683c20.903,5.173,45.841,8.119,72.728,8.119c26.883,0,51.816-2.945,72.717-8.116
	c11.307,15.44,17.27,33.577,17.27,52.68v29.16c-0.099,2.516-1.102,33.333,7.512,65.893c11.371,42.974,34.429,68.876,66.867,75.273
	C419.401,430.784,416.772,438.874,409.619,445.007z"/>
<g>
</g>
<g>
</g>
<g>
</g>
<g>
</g>
<g>
</g>
<g>
</g>
<g>
</g>
<g>
</g>
<g>
</g>
<g>
</g>
<g>
</g>
<g>
</g>
<g>
</g>
<g>
</g>
<g>
</g>
</svg>
